<?xml version="1.0" encoding="UTF-8" standalone="yes"?><svg xmlns="http://www.w3.org/2000/svg" xmlns:xlink="http://www.w3.org/1999/xlink" height="473px" style="width:726px;height:473px;" version="1.1" viewBox="0 0 726 473" width="726px"><defs><filter height="300%" id="f1" width="300%" x="-1" y="-1"><feGaussianBlur result="blurOut" stdDeviation="2.0"/><feColorMatrix in="blurOut" result="blurOut2" type="matrix" values="0 0 0 0 0 0 0 0 0 0 0 0 0 0 0 0 0 0 .4 0"/><feOffset dx="4.0" dy="4.0" in="blurOut2" result="blurOut3"/><feBlend in="SourceGraphic" in2="blurOut3" mode="normal"/></filter></defs><g><text fill="#000000" font-family="sans-serif" font-size="18" lengthAdjust="spacingAndGlyphs" textLength="184" x="276" y="16.708">Component Diagram</text><polygon fill="#FFFFFF" filter="url(#f1)" points="30,248.9531,101,248.9531,108,271.25,336,271.25,336,466.9531,30,466.9531,30,248.9531" style="stroke: #000000; stroke-width: 2.0;"/><line style="stroke: #000000; stroke-width: 2.0;" x1="30" x2="108" y1="271.25" y2="271.25"/><text fill="#000000" font-family="sans-serif" font-size="14" font-weight="bold" lengthAdjust="spacingAndGlyphs" textLength="65" x="34" y="263.9482">Sensors</text><polygon fill="#FFFFFF" filter="url(#f1)" points="376,248.9531,459,248.9531,466,271.25,501,271.25,501,351.9531,376,351.9531,376,248.9531" style="stroke: #000000; stroke-width: 2.0;"/><line style="stroke: #000000; stroke-width: 2.0;" x1="376" x2="466" y1="271.25" y2="271.25"/><text fill="#000000" font-family="sans-serif" font-size="14" font-weight="bold" lengthAdjust="spacingAndGlyphs" textLength="77" x="380" y="263.9482">Actuators</text><rect fill="#FEFECE" filter="url(#f1)" height="36.2969" style="stroke: #A80036; stroke-width: 1.5;" width="93" x="73.5" y="291.9531"/><rect fill="#FEFECE" height="5" style="stroke: #A80036; stroke-width: 1.5;" width="10" x="68.5" y="296.9531"/><rect fill="#FEFECE" height="5" style="stroke: #A80036; stroke-width: 1.5;" width="10" x="68.5" y="318.25"/><text fill="#000000" font-family="sans-serif" font-size="14" lengthAdjust="spacingAndGlyphs" textLength="73" x="83.5" y="314.9482">Interruptor</text><rect fill="#FEFECE" filter="url(#f1)" height="36.2969" style="stroke: #A80036; stroke-width: 1.5;" width="110" x="202" y="291.9531"/><rect fill="#FEFECE" height="5" style="stroke: #A80036; stroke-width: 1.5;" width="10" x="197" y="296.9531"/><rect fill="#FEFECE" height="5" style="stroke: #A80036; stroke-width: 1.5;" width="10" x="197" y="318.25"/><text fill="#000000" font-family="sans-serif" font-size="14" lengthAdjust="spacingAndGlyphs" textLength="90" x="212" y="314.9482">Temperature</text><rect fill="#FEFECE" filter="url(#f1)" height="36.2969" style="stroke: #A80036; stroke-width: 1.5;" width="101" x="73.5" y="406.9531"/><rect fill="#FEFECE" height="5" style="stroke: #A80036; stroke-width: 1.5;" width="10" x="68.5" y="411.9531"/><rect fill="#FEFECE" height="5" style="stroke: #A80036; stroke-width: 1.5;" width="10" x="68.5" y="433.25"/><text fill="#000000" font-family="sans-serif" font-size="14" lengthAdjust="spacingAndGlyphs" textLength="81" x="83.5" y="429.9482">WifiLocation</text><rect fill="#FEFECE" filter="url(#f1)" height="36.2969" style="stroke: #A80036; stroke-width: 1.5;" width="57" x="419.5" y="291.9531"/><rect fill="#FEFECE" height="5" style="stroke: #A80036; stroke-width: 1.5;" width="10" x="414.5" y="296.9531"/><rect fill="#FEFECE" height="5" style="stroke: #A80036; stroke-width: 1.5;" width="10" x="414.5" y="318.25"/><text fill="#000000" font-family="sans-serif" font-size="14" lengthAdjust="spacingAndGlyphs" textLength="37" x="429.5" y="314.9482">Relay</text><rect fill="#FEFECE" filter="url(#f1)" height="36.2969" style="stroke: #A80036; stroke-width: 1.5;" width="52" x="524" y="28.9531"/><rect fill="#FEFECE" height="5" style="stroke: #A80036; stroke-width: 1.5;" width="10" x="519" y="33.9531"/><rect fill="#FEFECE" height="5" style="stroke: #A80036; stroke-width: 1.5;" width="10" x="519" y="55.25"/><text fill="#000000" font-family="sans-serif" font-size="14" lengthAdjust="spacingAndGlyphs" textLength="32" x="534" y="51.9482">Main</text><rect fill="#FEFECE" filter="url(#f1)" height="36.2969" style="stroke: #A80036; stroke-width: 1.5;" width="87" x="630.5" y="141.9531"/><rect fill="#FEFECE" height="5" style="stroke: #A80036; stroke-width: 1.5;" width="10" x="625.5" y="146.9531"/><rect fill="#FEFECE" height="5" style="stroke: #A80036; stroke-width: 1.5;" width="10" x="625.5" y="168.25"/><text fill="#000000" font-family="sans-serif" font-size="14" lengthAdjust="spacingAndGlyphs" textLength="67" x="640.5" y="164.9482">Configure</text><rect fill="#FEFECE" filter="url(#f1)" height="36.2969" style="stroke: #A80036; stroke-width: 1.5;" width="212" x="139" y="141.9531"/><rect fill="#FEFECE" height="5" style="stroke: #A80036; stroke-width: 1.5;" width="10" x="134" y="146.9531"/><rect fill="#FEFECE" height="5" style="stroke: #A80036; stroke-width: 1.5;" width="10" x="134" y="168.25"/><text fill="#000000" font-family="sans-serif" font-size="14" lengthAdjust="spacingAndGlyphs" textLength="192" x="149" y="164.9482">Sensors/Actuators Manager</text><rect fill="#FEFECE" filter="url(#f1)" height="36.2969" style="stroke: #A80036; stroke-width: 1.5;" width="175" x="420.5" y="141.9531"/><rect fill="#FEFECE" height="5" style="stroke: #A80036; stroke-width: 1.5;" width="10" x="415.5" y="146.9531"/><rect fill="#FEFECE" height="5" style="stroke: #A80036; stroke-width: 1.5;" width="10" x="415.5" y="168.25"/><text fill="#000000" font-family="sans-serif" font-size="14" lengthAdjust="spacingAndGlyphs" textLength="155" x="430.5" y="164.9482">MQTT MessageQueue</text><path d="M569.103,65.0531 C591.067,84.7141 627.117,116.9851 650.707,138.1021 " fill="none" style="stroke: #A80036; stroke-width: 1.0; stroke-dasharray: 7.0,7.0;"/><polygon fill="#A80036" points="654.671,141.6501,650.6339,132.6667,650.9459,138.3149,645.2976,138.6269,654.671,141.6501" style="stroke: #A80036; stroke-width: 1.0;"/><text fill="#000000" font-family="sans-serif" font-size="13" lengthAdjust="spacingAndGlyphs" textLength="23" x="620" y="108.02">use</text><path d="M523.996,57.4171 C473.803,75.6841 362.721,116.1101 296.866,140.0771 " fill="none" style="stroke: #A80036; stroke-width: 1.0; stroke-dasharray: 7.0,7.0;"/><polygon fill="#A80036" points="291.813,141.9161,301.6385,142.5943,296.511,140.2049,298.9005,135.0775,291.813,141.9161" style="stroke: #A80036; stroke-width: 1.0;"/><text fill="#000000" font-family="sans-serif" font-size="13" lengthAdjust="spacingAndGlyphs" textLength="23" x="416" y="108.02">use</text><path d="M351.073,159.9531 C372.449,159.9531 393.825,159.9531 415.201,159.9531 " fill="none" style="stroke: #A80036; stroke-width: 1.0;"/><polygon fill="#A80036" points="420.342,159.9531,411.342,155.9531,415.342,159.9531,411.342,163.9531,420.342,159.9531" style="stroke: #A80036; stroke-width: 1.0;"/><path d="M150.852,178.0331 C116.993,188.5991 81.2204,205.6161 57,232.9531 C54.2041,236.1089 51.8067,239.6148 49.7523,243.3398 C49.2387,244.271 48.7465,245.216 48.2749,246.1725 C48.0392,246.6508 47.8085,247.132 47.5829,247.6159 C47.4701,247.8578 47.3585,248.1004 47.2482,248.3436 C47.1931,248.4652 47.1382,248.587 47.0837,248.7089 " fill="none" style="stroke: #A80036; stroke-width: 1.0; stroke-dasharray: 7.0,7.0;"/><polygon fill="#A80036" points="47.0837,248.7089,54.4097,242.1264,49.1251,244.1447,47.1068,238.8601,47.0837,248.7089" style="stroke: #A80036; stroke-width: 1.0;"/><text fill="#000000" font-family="sans-serif" font-size="13" lengthAdjust="spacingAndGlyphs" textLength="23" x="87" y="221.02">use</text><path d="M267.338,178.0761 C284.766,191.9511 309.105,212.4921 328,232.9531 C341.788,247.8836 355.3575,266.1814 365.6853,281.0813 C368.2672,284.8062 370.6465,288.3188 372.776,291.5133 C373.8407,293.1106 374.843,294.6284 375.7769,296.0534 C375.8353,296.1424 375.8934,296.2311 375.9512,296.3195 " fill="none" style="stroke: #A80036; stroke-width: 1.0; stroke-dasharray: 7.0,7.0;"/><polygon fill="#A80036" points="375.9512,296.3195,374.368,286.5987,373.2125,292.1363,367.6749,290.9807,375.9512,296.3195" style="stroke: #A80036; stroke-width: 1.0;"/><text fill="#000000" font-family="sans-serif" font-size="13" lengthAdjust="spacingAndGlyphs" textLength="23" x="320" y="221.02">use</text></g></svg>